<svg width="40" height="16" viewBox="0 0 40 16" fill="none" xmlns="http://www.w3.org/2000/svg">
<g clip-path="url(#clip0_201_1190)">
<path d="M10.3225 14.6793C9.20679 15.5554 7.70617 15.9934 5.82955 15.9934C4.17274 15.9934 2.79484 15.5839 1.67691 14.7823C0.558977 13.9807 0.00335693 12.8758 0.00335693 11.4686H4.19617C4.33563 12.6973 4.97716 13.2328 6.03261 13.2328C7.25096 13.2328 8.02972 12.4487 8.02972 11.3262C8.02972 10.1677 7.4105 9.59824 6.55253 9.43726L4.65584 9.06275C1.84092 8.49331 0.10377 6.83538 0.10377 4.71534C0.10377 3.37936 0.624431 2.25692 1.66575 1.34801C2.71563 0.443488 4.17274 0.00546265 6.04935 0.00546265C7.50645 0.00546265 8.76497 0.3964 9.86282 1.19908C10.9607 1.98315 11.5598 2.98075 11.62 4.1919H7.62695C7.38707 3.17677 6.68864 2.71356 5.86972 2.71356C4.7317 2.71356 4.03327 3.42535 4.03327 4.56641C4.03327 5.51035 4.7317 6.11593 5.55063 6.31194L7.40716 6.70398C10.308 7.34569 11.9994 8.57544 11.9994 11.266C11.9994 12.6699 11.4404 13.8077 10.3225 14.6793Z" fill="black"/>
<path d="M21.8421 15.7142V9.15801H17.55V14.4669C17.55 15.1984 16.8114 15.7142 15.9523 15.7142H13.5V0.284698H17.55V6.39626H21.8421V0.284698H25.8955V14.4669C25.8955 15.1984 25.1569 15.7142 24.2978 15.7142H21.8421Z" fill="black"/>
<path d="M37.5992 14.6793C36.4835 15.5554 34.984 15.9934 33.1063 15.9934C31.4494 15.9934 30.0715 15.5839 28.9536 14.7823C27.8357 13.9807 27.2801 12.8758 27.2801 11.4686H31.4628C31.6023 12.6973 32.2438 13.2328 33.2993 13.2328C34.5176 13.2328 35.2964 12.4487 35.2964 11.3262C35.2964 10.1677 34.6772 9.59824 33.8192 9.43726L31.9225 9.06275C29.1076 8.49331 27.3704 6.83538 27.3704 4.71534C27.3704 3.37936 27.8892 2.25692 28.9268 1.34801C29.989 0.443488 31.4461 0.00546265 33.3227 0.00546265C34.7809 0.00546265 36.0383 0.3964 37.1362 1.19908C38.234 1.98315 38.8332 2.98075 38.8934 4.1919H34.9003C34.6604 3.17677 33.962 2.71356 33.1431 2.71356C32.0051 2.71356 31.3066 3.42535 31.3066 4.56641C31.3066 5.51035 32.0051 6.11593 32.824 6.31194L34.6805 6.70398C37.5813 7.34569 39.2727 8.57544 39.2727 11.266C39.2727 12.6699 38.7149 13.8077 37.5992 14.6793Z" fill="black"/>
</g>
<defs>
<clipPath id="clip0_201_1190">
<rect width="39.2727" height="16" fill="white"/>
</clipPath>
</defs>
</svg>
