<svg width="162" height="66" viewBox="0 0 162 66" fill="none" xmlns="http://www.w3.org/2000/svg">
<path d="M42.5802 60.5523C37.978 64.166 31.7879 65.9729 24.0469 65.9729C17.2125 65.9729 11.5287 64.2835 6.91722 60.9769C2.30574 57.6704 0.0138092 53.1126 0.0138092 47.308H17.3092C17.8844 52.3763 20.5307 54.5852 24.8845 54.5852C29.9102 54.5852 33.1226 51.3509 33.1226 46.7208C33.1226 41.9417 30.5683 39.5928 27.0292 38.9288L19.2053 37.3839C7.59375 35.035 0.428014 28.196 0.428014 19.4508C0.428014 13.9399 2.57574 9.30983 6.8712 5.5606C11.2019 1.82944 17.2125 0.022583 24.9535 0.022583C30.9641 0.022583 36.1555 1.6352 40.6841 4.94627C45.2127 8.18054 47.6841 12.2957 47.9327 17.2916H31.4611C30.4717 13.1042 27.5906 11.1935 24.2126 11.1935C19.5182 11.1935 16.6372 14.1296 16.6372 18.8365C16.6372 22.7303 19.5182 25.2282 22.8963 26.0368L30.5545 27.654C42.5204 30.301 49.4974 35.3737 49.4974 46.4724C49.4974 52.2634 47.1917 56.9567 42.5802 60.5523Z" fill="#007BFF"/>
<path d="M90.0987 64.821V37.7769H72.3937V59.676C72.3937 62.6934 69.347 64.821 65.8033 64.821H55.6875V1.17445H72.3937V26.3846H90.0987V1.17445H106.819V59.676C106.819 62.6934 103.772 64.821 100.228 64.821H90.0987Z" fill="#007BFF"/>
<path d="M155.097 60.5523C150.494 64.166 144.309 65.9729 136.563 65.9729C129.729 65.9729 124.045 64.2835 119.434 60.9769C114.822 57.6704 112.53 53.1126 112.53 47.308H129.784C130.359 52.3763 133.006 54.5852 137.359 54.5852C142.385 54.5852 145.597 51.3509 145.597 46.7208C145.597 41.9417 143.043 39.5928 139.504 38.9288L131.68 37.3839C120.069 35.035 112.903 28.196 112.903 19.4508C112.903 13.9399 115.043 9.30983 119.323 5.5606C123.704 1.82944 129.715 0.022583 137.456 0.022583C143.471 0.022583 148.658 1.6352 153.187 4.94627C157.715 8.18054 160.187 12.2957 160.435 17.2916H143.964C142.974 13.1042 140.093 11.1935 136.715 11.1935C132.021 11.1935 129.14 14.1296 129.14 18.8365C129.14 22.7303 132.021 25.2282 135.399 26.0368L143.057 27.654C155.023 30.301 162 35.3737 162 46.4724C162 52.2634 159.699 56.9567 155.097 60.5523Z" fill="#007BFF"/>
</svg>
