<svg width="16" height="16" viewBox="0 0 16 16" fill="none" xmlns="http://www.w3.org/2000/svg">
<path d="M0 4C0 1.79086 1.79086 0 4 0H12C14.2091 0 16 1.79086 16 4V12C16 14.2091 14.2091 16 12 16H4C1.79086 16 0 14.2091 0 12V4Z" fill="white"/>
<path fill-rule="evenodd" clip-rule="evenodd" d="M12.8767 4.6225C12.7126 4.45915 12.4461 4.45915 12.2821 4.6225L6.33316 10.5522L3.71759 7.9648C3.55355 7.80144 3.28708 7.80144 3.12303 7.9648C2.95899 8.12815 2.95899 8.39261 3.12303 8.55555L6.03713 11.4379C6.19951 11.5991 6.46973 11.5991 6.63211 11.4379L12.8767 5.21325C13.0411 5.05031 13.0411 4.78544 12.8767 4.6225C13.0411 4.78544 12.7126 4.45915 12.8767 4.6225Z" fill="#D7D7D7"/>
<path d="M12.8767 4.6225C12.7126 4.45915 12.4461 4.45915 12.2821 4.6225L6.33316 10.5522L3.71759 7.9648C3.55355 7.80144 3.28708 7.80144 3.12303 7.9648C2.95899 8.12815 2.95899 8.39261 3.12303 8.55555L6.03713 11.4379C6.19951 11.5991 6.46973 11.5991 6.63211 11.4379L12.8767 5.21325C13.0411 5.05031 13.0411 4.78544 12.8767 4.6225ZM12.8767 4.6225C12.7126 4.45915 13.0411 4.78544 12.8767 4.6225Z" stroke="#D7D7D7" stroke-linejoin="round"/>
<path d="M4 1H12V-1H4V1ZM15 4V12H17V4H15ZM12 15H4V17H12V15ZM1 12V4H-1V12H1ZM4 15C2.34315 15 1 13.6569 1 12H-1C-1 14.7614 1.23858 17 4 17V15ZM15 12C15 13.6569 13.6569 15 12 15V17C14.7614 17 17 14.7614 17 12H15ZM12 1C13.6569 1 15 2.34315 15 4H17C17 1.23858 14.7614 -1 12 -1V1ZM4 -1C1.23858 -1 -1 1.23858 -1 4H1C1 2.34315 2.34315 1 4 1V-1Z" fill="#D7D7D7"/>
</svg>
